<svg width="15" height="16" viewBox="0 0 15 16" fill="none" xmlns="http://www.w3.org/2000/svg">
<path d="M12.152 10.2225C11.2368 10.2225 10.4207 10.6586 9.89868 11.3326L5.52753 8.89097C5.62996 8.59692 5.68612 8.27974 5.68612 7.95264C5.68612 7.62225 5.62996 7.30837 5.52423 7.01101L9.89207 4.57269C10.4108 5.25 11.2302 5.68943 12.1487 5.68943C13.7148 5.68943 14.9934 4.4141 14.9934 2.84471C14.9934 1.27533 13.7181 0 12.1487 0C10.5793 0 9.30397 1.27533 9.30397 2.84471C9.30397 3.17511 9.36013 3.49229 9.46586 3.78634L5.10132 6.22467C4.5826 5.54405 3.76322 5.10793 2.84471 5.10793C1.27863 5.10793 0 6.38326 0 7.95264C0 9.52203 1.27863 10.7974 2.84802 10.7974C3.76652 10.7974 4.5859 10.3579 5.10793 9.67731L9.47577 12.1189C9.37004 12.4163 9.31057 12.7368 9.31057 13.0672C9.31057 14.6333 10.5859 15.9119 12.1553 15.9119C13.7247 15.9119 15 14.6366 15 13.0672C15 11.4978 13.7214 10.2225 12.152 10.2225ZM12.152 0.895374C13.2291 0.895374 14.1046 1.77093 14.1046 2.84802C14.1046 3.92511 13.2291 4.80066 12.152 4.80066C11.0749 4.80066 10.1993 3.92511 10.1993 2.84802C10.1993 1.77093 11.0782 0.895374 12.152 0.895374ZM2.84802 9.90529C1.77093 9.90529 0.895375 9.02974 0.895375 7.95264C0.895375 6.87555 1.77093 6 2.84802 6C3.92511 6 4.80066 6.87555 4.80066 7.95264C4.80066 9.02974 3.92181 9.90529 2.84802 9.90529ZM12.152 15.0165C11.0749 15.0165 10.1993 14.141 10.1993 13.0639C10.1993 11.9868 11.0749 11.1112 12.152 11.1112C13.2291 11.1112 14.1046 11.9868 14.1046 13.0639C14.1046 14.141 13.2291 15.0165 12.152 15.0165Z" fill="#FFC700"/>
</svg>
