<svg width="19" height="18" viewBox="0 0 19 18" fill="none" xmlns="http://www.w3.org/2000/svg">
<path d="M17.999 10.7752C17.999 8.38566 17.0146 5.26098 14.275 4.13945V2.94221L15.0897 2.29052C15.1632 2.2316 15.2061 2.14242 15.206 2.04816V0.310327C15.206 0.138949 15.0671 0 14.8957 0H13.9647C13.8824 0 13.8035 0.0327395 13.7453 0.0909258L13.3441 0.492179L12.9428 0.0909258C12.8846 0.0327395 12.8057 0 12.7234 0H11.4821C11.3998 0 11.3209 0.0327395 11.2627 0.0909258L10.8614 0.492179L10.4602 0.0909258C10.402 0.0327395 10.3231 0 10.2408 0H9.30981C9.13843 0 8.99948 0.138949 8.99948 0.310327V2.04816C8.99944 2.14242 9.04227 2.2316 9.11586 2.29052L9.93046 2.94221V4.13945C7.1909 5.26098 6.20654 8.3869 6.20654 10.7752C6.20072 11.3355 6.28777 11.893 6.46411 12.4249C6.33067 12.4174 6.1963 12.4131 6.06224 12.4131H5.27556C5.27556 12.2417 5.13661 12.1028 4.96523 12.1028H2.48262C2.31124 12.1028 2.17229 12.2417 2.17229 12.4131H0V13.0337H2.17229V16.137H0V16.7577H2.17229C2.17229 16.929 2.31124 17.068 2.48262 17.068H4.96523C5.13661 17.068 5.27556 16.929 5.27556 16.7577V16.6394L7.59246 17.6014C8.85549 18.1173 10.2675 18.133 11.5417 17.6452L16.3356 15.8171C16.6196 15.7091 16.8482 15.4913 16.9696 15.2129C17.156 14.7969 17.0769 14.3099 16.7685 13.9743C17.6038 13.1243 18.0494 11.9659 17.999 10.7752ZM4.65491 16.4473H2.79294V12.7234H4.65491V16.4473ZM9.62014 1.8992V0.620654H10.1123L10.642 1.15038C10.7632 1.27153 10.9597 1.27153 11.0808 1.15038L11.6106 0.620654H12.5949L13.1247 1.15038C13.2458 1.27153 13.4423 1.27153 13.5635 1.15038L14.0932 0.620654H14.5854V1.8992L13.8558 2.48262H10.3491L9.62014 1.8992ZM13.6544 3.10327V4.03425H10.5511V3.10327H13.6544ZM16.4005 14.9627C16.3457 15.0894 16.2421 15.1887 16.1131 15.238L11.3192 17.0658C10.1927 17.4973 8.94428 17.4839 7.82738 17.0283L5.27556 15.9673V13.0337H6.06224C7.09121 13.0349 8.1059 13.2745 9.02679 13.7335C9.33087 13.8853 9.66603 13.9644 10.0059 13.9647H12.4131C12.6701 13.9664 12.8772 14.1761 12.8755 14.4332C12.8741 14.6485 12.7252 14.8348 12.5155 14.8836C12.4748 14.8873 12.4351 14.8957 12.3938 14.8957H8.68916V15.5164H12.3938C12.4004 15.5164 12.4066 15.5164 12.4131 15.5164C12.4193 15.5164 12.4252 15.5145 12.4317 15.5145C12.678 15.5105 12.9212 15.459 13.1479 15.3627L15.7426 14.2614C15.8662 14.2086 16.006 14.2086 16.1296 14.2614C16.2581 14.3157 16.359 14.42 16.4089 14.5503C16.4616 14.6834 16.4585 14.832 16.4005 14.9627ZM16.2155 13.6407C15.9781 13.5771 15.7263 13.5945 15.4999 13.6901L13.4877 14.5444C13.4936 14.5066 13.4974 14.4685 13.4992 14.4302C13.4992 13.8303 13.0129 13.3441 12.4131 13.3441H10.0059C9.76235 13.3437 9.52219 13.287 9.30422 13.1784C8.6307 12.8435 7.9093 12.615 7.16576 12.5012C6.93383 11.9558 6.81851 11.3678 6.82719 10.7752C6.82719 8.54082 7.73987 5.60792 10.3029 4.65491H13.9027C16.4656 5.60792 17.3783 8.54082 17.3783 10.7752C17.4304 11.8548 17.0052 12.9027 16.2155 13.6407Z" fill="#FFC700"/>
</svg>
